<svg width="798" height="798" viewBox="0 0 798 798" fill="none" xmlns="http://www.w3.org/2000/svg">
<circle cx="398" cy="397" r="311" fill="white"/>
<path fill-rule="evenodd" clip-rule="evenodd" d="M499.897 696.693C664.384 640.893 752.492 462.316 696.693 297.829C640.893 133.343 462.316 45.2344 297.829 101.034C133.343 156.833 45.2344 335.411 101.034 499.897C156.833 664.384 335.411 752.492 499.897 696.693ZM302.876 213.43C301.764 211.955 297.57 208.726 293.554 206.254C286.612 201.983 286.1 201.838 283.122 203.317C278.3 205.71 263.601 218.483 260.143 223.283C255.657 229.514 251.71 237.406 252.264 239.038C252.617 240.079 251.618 240.906 248.476 242.173C237.475 246.608 233.993 248.245 232.705 249.585C231.94 250.381 229.764 251.884 227.87 252.925C223.676 255.231 216.672 260.161 214.898 262.057C214.182 262.821 212.573 263.794 211.322 264.219C208.738 265.095 202.829 270.922 203.254 272.175C203.408 272.63 202.128 274.277 200.41 275.834C198.692 277.392 197.393 278.982 197.524 279.367C197.654 279.752 197.211 280.254 196.539 280.482C195.866 280.711 194.065 283.392 192.535 286.442C191.007 289.492 189.409 292.119 188.986 292.281C187.94 292.679 184.627 298.542 184.932 299.454C185.068 299.857 184.22 301.432 183.05 302.954C181.88 304.476 180.936 306.521 180.952 307.5C180.969 308.479 180.598 309.41 180.128 309.569C179.659 309.729 179.478 310.462 179.728 311.198C179.978 311.933 179.092 314.806 177.76 317.58L175.339 322.624L170.693 323.087C159.005 324.253 134.872 333.504 123.46 341.194C120.167 343.414 119.63 344.317 119.389 348.046C119.132 352.005 119.437 352.948 123.286 360.085C128.063 368.944 135.166 379.02 136.349 378.619C136.789 378.469 137.414 379.125 137.737 380.076C138.46 382.207 140.355 384.022 148.27 390.169C151.673 392.812 154.988 394.793 155.636 394.573C156.285 394.353 157.006 394.734 157.239 395.42C157.471 396.105 159.433 397.483 161.596 398.481C170.942 402.79 176.268 404.958 176.946 404.728C177.346 404.592 177.943 405.277 178.273 406.251C178.603 407.223 179.701 408.428 180.714 408.928C181.726 409.428 182.811 410.589 183.125 411.507C184.124 414.426 195.63 427.914 199.138 430.276C200.994 431.527 202.62 432.864 202.75 433.248C202.88 433.632 204.845 435.36 207.117 437.09C209.389 438.819 211.331 440.481 211.433 440.782C211.762 441.753 221.005 447.418 227.103 450.386C230.362 451.972 233.143 453.603 233.281 454.009C233.418 454.416 236.359 455.586 239.816 456.611C243.272 457.637 247.639 459.022 249.519 459.69C251.4 460.358 253.27 460.501 253.677 460.009C254.083 459.516 254.541 459.484 254.694 459.937C255.025 460.911 259.759 461.511 261.757 460.834C264.243 459.99 267.223 462.263 268.651 466.091C269.41 468.124 271.224 472.373 272.684 475.534C274.143 478.694 276.051 482.879 276.924 484.833C280.347 492.491 282.26 495.877 289.772 507.573C291.699 510.575 294.716 515.304 296.474 518.082C302.073 526.926 305.464 531.086 315.08 540.914C320.245 546.193 326.325 552.413 328.591 554.738C330.857 557.063 333.067 558.997 333.501 559.037C333.936 559.078 334.492 559.7 334.736 560.422C335.322 562.148 338.041 564.558 342.403 567.217C344.349 568.403 346.084 569.79 346.256 570.296C346.428 570.803 350.356 573.577 354.985 576.462C359.615 579.347 363.515 582.032 363.652 582.43C363.79 582.827 368.599 585.24 374.339 587.792C380.08 590.344 386.753 593.427 389.168 594.641C391.583 595.857 394.584 596.826 395.838 596.794C397.091 596.763 398.219 597.016 398.346 597.357C398.472 597.699 401.088 598.505 404.159 599.151C407.231 599.796 411.13 600.818 412.825 601.422C416.295 602.659 432.885 606.123 444.316 607.998C452.745 609.38 462.299 609.732 462.818 608.677C463.004 608.299 463.964 608.3 464.952 608.678C465.939 609.057 468.572 608.707 470.803 607.9C473.033 607.094 475.216 606.728 475.653 607.089C476.871 608.096 503.024 598.249 512.791 593.106C527.519 585.352 541.507 574.889 545.778 568.429C546.335 567.587 548.514 565.593 550.621 563.998C555.63 560.207 560.876 553.097 560.99 549.949C561.038 548.576 561.704 547.24 562.47 546.98C563.235 546.721 565.433 543.214 567.355 539.188C569.276 535.161 571.363 531.692 571.991 531.479C572.621 531.266 575.609 528.694 578.634 525.764C581.659 522.835 585.959 519.047 588.19 517.346C590.422 515.646 593.339 512.993 594.673 511.45C596.007 509.907 598.282 508.244 599.729 507.753C601.175 507.263 602.722 506.143 603.167 505.266C603.611 504.388 605.225 502.614 606.753 501.324C608.281 500.034 609.983 498.276 610.534 497.417C611.085 496.56 613.589 493.698 616.097 491.057C620.425 486.504 620.82 486.282 623.801 486.739C625.529 487.004 627.434 487.849 628.034 488.615C628.918 489.744 630.513 489.599 636.425 487.852C640.44 486.665 644.066 485.951 644.483 486.267C645.699 487.185 648.762 487.017 648.992 486.019C649.107 485.515 650.867 484.227 652.904 483.156C655.015 482.046 657.664 479.551 659.067 477.352C660.421 475.231 661.776 473.411 662.079 473.308C663.577 472.8 670.901 457.952 671.291 454.631C671.844 449.922 672.474 442.189 672.336 441.785C672.26 441.56 672.287 440.05 672.397 438.429C672.506 436.809 672.216 434.1 671.753 432.409C671.289 430.719 671.073 429.003 671.273 428.597C671.473 428.191 670.363 426.938 668.804 425.812C666.617 424.232 665.53 424.053 664.026 425.023C662.817 425.803 661.637 425.896 660.915 425.266C659.726 424.231 648.334 421.169 645.207 421.044C644.256 421.006 642.591 420.55 641.508 420.031C640.424 419.512 637.468 418.24 634.939 417.205C632.205 416.086 629.893 414.381 629.239 413.002C627.998 410.383 625.433 405.276 622.927 400.436C621.997 398.641 620.863 397.301 620.405 397.456C619.946 397.612 619.486 396.698 619.382 395.427C619.263 393.959 618.522 392.856 617.357 392.409C616.347 392.021 615.133 390.561 614.659 389.164C614.164 387.705 613.107 386.595 612.179 386.558C611.288 386.523 610.66 386.059 610.782 385.527C611.127 384.029 594.443 368.609 589.83 366.162C589.025 365.735 586.377 363.642 583.947 361.511C578.309 356.568 566.811 349.886 557.728 346.271C553.832 344.721 550.45 343.048 550.212 342.552C549.973 342.058 549.594 341.275 549.367 340.815C549.14 340.355 547.316 340.228 545.314 340.532C541.98 341.038 538.938 340.824 529.884 339.45C528.108 339.181 523.748 338.52 520.195 337.983C516.643 337.445 510.535 336.711 506.623 336.351C502.711 335.991 499.404 335.388 499.274 335.009C499.146 334.631 497.483 334.814 495.582 335.416C493.679 336.019 490.302 336.561 488.077 336.623C484.686 336.716 483.95 336.366 483.537 334.461C483.266 333.211 483.384 331.358 483.798 330.343C484.212 329.33 487.765 316.365 491.693 301.535C497.867 278.222 500.811 264.284 500.041 262.014C499.925 261.672 500.213 257.937 500.682 253.718C502.158 240.429 502.012 239.034 498.502 233.012C491.924 221.73 482.524 217.217 470.74 219.683C467.111 220.443 466.207 221.28 459.197 230.37C455.014 235.794 450.113 243.092 448.309 246.587C443.695 255.519 441.728 258.662 440.486 259.083C439.893 259.284 438.701 260.733 437.835 262.304C435.205 267.073 420.909 284.454 413.621 291.741C409.847 295.516 406.024 299.668 405.125 300.969C402.48 304.8 401.539 304.26 403.548 300.064C404.569 297.93 405.389 295.351 405.368 294.333C405.348 293.316 405.682 292.365 406.111 292.219C407.17 291.86 407.039 283.025 405.908 278.429C404.322 271.987 398.084 261.07 392.964 255.775C382.943 245.412 359.963 237.51 347.08 239.997C343.604 240.667 341.434 240.402 338.608 238.963C336.519 237.898 331.179 236.096 326.741 234.959C321.084 233.509 318.691 232.427 318.733 231.336C318.766 230.48 318.209 229.409 317.495 228.955C316.782 228.501 315.401 226.79 314.426 225.152C313.452 223.514 311.55 221.451 310.201 220.567C308.85 219.684 307.485 218.192 307.166 217.251C306.847 216.31 306.206 215.669 305.741 215.827C305.276 215.985 303.987 214.906 302.876 213.43ZM259.056 237.893C258.133 234.599 268.633 221.493 281.544 209.825C283.641 207.931 285.623 206.29 285.948 206.18C286.273 206.07 287.875 207.252 289.507 208.807C291.14 210.363 292.814 211.75 293.227 211.891C293.641 212.032 295.511 213.699 297.384 215.594C299.256 217.49 301.411 219.628 302.171 220.347C302.931 221.066 303.813 222.377 304.131 223.261C304.448 224.146 306.333 226.505 308.318 228.502C310.303 230.5 311.814 232.174 311.675 232.221C311.535 232.268 309.219 232.134 306.526 231.922C303.834 231.711 300.817 231.814 299.821 232.152C298.826 232.489 298.114 232.318 298.239 231.772C298.513 230.585 291.224 219.057 288.712 216.703C286.815 214.925 285.44 214.931 285.029 216.717C284.889 217.327 283.819 218.151 282.651 218.547C281.483 218.943 280.232 220.04 279.871 220.984C279.511 221.928 278.479 223.244 277.578 223.906C275.832 225.193 271.77 233.323 272.217 234.64C272.364 235.073 271.686 235.446 270.711 235.469C269.736 235.492 266.749 236.172 264.074 236.978C261.4 237.785 259.141 238.197 259.056 237.893ZM281.8 229.777C281.595 229.172 282.463 227.06 283.728 225.084C286.335 221.014 286.867 220.631 287.466 222.395C287.699 223.082 288.828 225.522 289.975 227.819L292.059 231.995L288.746 232.475C286.923 232.739 284.753 232.987 283.924 233.027C283.095 233.066 281.784 233.265 281.01 233.467C279.886 233.761 279.861 233.538 280.888 232.357C281.595 231.543 282.006 230.382 281.8 229.777ZM239.672 257.611C240.545 256.874 243.212 255.253 245.598 254.009C251.06 251.163 272.108 243.879 276.404 243.347C278.178 243.128 281.962 242.369 284.81 241.66C300.917 237.656 313.708 238.148 333.961 243.551C339.091 244.92 344.255 245.711 345.437 245.311C348.121 244.402 359.732 245.689 362.115 247.16C363.09 247.762 364.263 248.127 364.723 247.971C365.956 247.553 381.189 254.837 381.597 256.041C381.789 256.606 383.374 258.065 385.119 259.282C386.864 260.498 389.657 263.206 391.325 265.3C392.993 267.394 395.032 269.799 395.855 270.644C398.38 273.235 400.682 284.415 399.97 290.622C399.258 296.824 392.705 310.219 387.854 315.389C386.397 316.941 379.782 326.733 377.206 331.148C376.585 332.214 375.728 333.204 375.303 333.348C373.788 333.862 371.094 339.473 371.62 341.022C372.241 342.852 376.85 341.737 377.958 339.487C378.329 338.734 379.274 337.378 380.06 336.473C384.226 331.675 390.99 322.569 391.259 321.397C392.084 317.801 398.08 311.496 402.717 309.35C406.94 307.395 410.039 304.918 415.995 298.737C416.825 297.875 418.884 295.814 420.568 294.157C422.253 292.501 424.036 290.507 424.53 289.729C425.025 288.95 425.904 288.069 426.483 287.773C427.518 287.243 433.109 279.905 441.624 267.901C443.988 264.568 448.6 256.552 451.872 250.088C455.337 243.245 458.634 237.99 459.768 237.507C461.12 236.932 461.698 237.13 461.657 238.156C461.624 239.007 462.411 239.66 463.515 239.698C464.569 239.733 467.065 240.517 469.062 241.438C472.662 243.097 483.713 246.725 491.685 248.864C494.196 249.537 495.652 250.446 495.384 251.172C494.491 253.603 493.45 260.648 493.823 261.746C494.035 262.371 493.693 264.749 493.063 267.032C492.433 269.315 492.079 271.657 492.275 272.237C492.472 272.815 492.174 274.821 491.613 276.694C491.051 278.566 490.274 282.122 489.883 284.597C487.605 299.017 486.702 303.303 485.268 306.519C484.391 308.487 483.741 310.294 483.823 310.536C483.994 311.043 481.12 321.222 480.531 322.194C480.317 322.548 479.264 326.026 478.191 329.923C476.885 334.663 475.806 336.863 474.926 336.568C472.824 335.863 463.316 337.275 457.046 339.223C453.021 340.474 451.15 340.658 450.87 339.832C450.649 339.181 450.812 338.231 451.234 337.721C452.24 336.5 453.163 327.004 452.804 321.588C452.646 319.227 451.653 315.049 450.596 312.303C448.435 306.689 444.944 303.778 437.727 301.569C434.128 300.468 432.635 300.606 426.831 302.574C417.572 305.716 409.508 311.448 406.333 317.148C404.961 319.609 403.526 321.729 403.143 321.859C402.76 321.989 401.222 324.566 399.727 327.586C398.231 330.606 396.497 333.265 395.873 333.495C395.249 333.725 394.863 334.281 395.016 334.731C395.168 335.181 394.438 336.101 393.392 336.777C392.346 337.451 390.896 339.109 390.171 340.46C389.444 341.811 386.497 345.289 383.622 348.188C377.321 354.539 365.569 367.993 364.166 370.461C363.611 371.438 362.877 372.332 362.537 372.448C361.771 372.707 358.126 376.359 342.143 392.882C335.243 400.013 326.998 407.734 323.822 410.039C317.105 414.911 315.066 418.255 317.788 419.93C320.681 421.711 328.285 417.235 338.61 407.674C344.67 402.061 350.147 396.521 353.79 392.318C355.405 390.456 358.584 386.959 360.855 384.547C363.126 382.135 366.909 377.708 369.262 374.711C373.67 369.093 375.417 367.045 379.761 362.406C381.151 360.922 382.764 358.903 383.345 357.919C383.927 356.935 385.923 354.511 387.779 352.533C389.635 350.553 391.186 348.579 391.226 348.143C391.266 347.707 391.668 347.226 392.121 347.073C393.657 346.551 403.16 331.65 403.123 329.818C403.071 327.189 409.021 318.658 410.562 319.158C414.12 320.313 423.629 323.762 425.029 324.405C425.91 324.81 427.118 324.974 427.717 324.771C428.315 324.568 429.6 325.053 430.571 325.848C431.543 326.643 432.689 327.175 433.119 327.029C433.548 326.884 436.349 327.89 439.342 329.264L444.785 331.764L443.549 337.483C442.026 344.524 438.369 352.682 433.699 359.455C431.754 362.277 429.376 366.061 428.414 367.865C427.453 369.669 426.417 371.229 426.113 371.332C425.809 371.436 424.61 372.912 423.449 374.613C422.288 376.314 420.815 378.197 420.177 378.799C417.682 381.149 402.337 397.568 399.76 400.643C398.184 402.524 397.277 404.614 397.611 405.598C398.094 407.02 398.709 407.045 401.358 405.751C403.1 404.9 405.62 403.182 406.956 401.935C408.292 400.687 410.316 399.024 411.454 398.238C412.591 397.452 414.354 395.668 415.371 394.272C416.389 392.876 417.712 391.567 418.312 391.363C418.912 391.16 420.239 389.86 421.26 388.475C422.281 387.091 425.267 383.687 427.895 380.912C430.522 378.137 432.972 374.704 433.338 373.284C433.704 371.863 434.503 370.531 435.113 370.324C435.723 370.118 436.839 368.588 437.595 366.926C438.35 365.264 439.425 363.749 439.984 363.559C440.544 363.369 442.466 360.19 444.259 356.494C447.446 349.92 452.499 344.561 453.841 346.332C454.193 346.796 455.191 346.707 456.059 346.135C458.297 344.658 470.831 342.752 476.95 342.957C479.791 343.053 482.827 342.889 483.698 342.593C485.349 342.034 498.759 341.819 503.299 342.279C504.737 342.425 506.032 342.891 506.175 343.315C506.319 343.737 507.028 343.883 507.751 343.638C509.527 343.036 512.705 343.376 520.536 345.009C524.163 345.765 527.929 346.37 528.907 346.353C531.658 346.306 531.435 347.554 528.377 349.307C524.951 351.271 515.503 359.699 508.973 366.614C506.288 369.46 502.384 373.529 500.298 375.658C498.212 377.787 496.39 379.868 496.249 380.281C496.109 380.694 493.76 383.255 491.031 385.972C485.47 391.51 476.783 403.059 475.435 406.706C474.949 408.022 474.274 409.193 473.936 409.307C473.598 409.422 472.051 411.557 470.498 414.053C468.946 416.548 467.283 418.723 466.803 418.885C466.322 419.048 463.573 422.628 460.694 426.838C454.202 436.329 438.392 458.279 436.426 460.53C435.625 461.446 434.229 463.76 433.326 465.672C432.421 467.583 430.513 471.295 429.086 473.92C427.66 476.545 426.524 478.786 426.563 478.901C426.601 479.015 424.882 482.909 422.742 487.552C418.995 495.684 414.319 507.562 411.431 516.288C410.672 518.581 409.662 521.509 409.186 522.796C403.366 538.533 397.672 564.347 396.081 582.206C395.836 584.961 395.296 587.33 394.88 587.471C394.465 587.612 392.485 586.673 390.479 585.385C388.474 584.097 386.373 583.199 385.811 583.389C384.523 583.826 365.067 574.573 364.643 573.322C364.47 572.813 362.599 571.459 360.486 570.313C358.371 569.168 355.658 567.298 354.455 566.16C353.252 565.022 351.915 564.21 351.485 564.356C351.054 564.502 348.723 562.646 346.304 560.233C343.886 557.819 340.663 555.254 339.142 554.531C337.458 553.731 336.006 552.124 335.429 550.422C334.907 548.884 334.069 547.767 333.565 547.938C333.061 548.108 332.456 547.68 332.22 546.985C331.985 546.29 331 545.418 330.031 545.046C329.062 544.674 328.007 543.595 327.686 542.649C327.365 541.702 326.741 541.049 326.3 541.199C324.845 541.692 314.925 531.45 308.035 522.341C300.986 513.022 299.595 510.723 290.577 493.495C283.156 479.316 279.604 473.057 277.928 471.198C277.15 470.337 275.654 467.714 274.602 465.368C272.696 461.118 272.7 461.094 275.762 458.472C277.452 457.025 278.645 455.281 278.413 454.597C277.839 452.906 274.404 452.453 270.979 453.615C269.425 454.142 265.417 454.121 262.072 453.568C258.727 453.016 255.599 452.696 255.12 452.859C253.726 453.332 240.563 449.336 237.841 447.614C236.474 446.749 233.08 444.872 230.298 443.442C224.596 440.512 218.457 436.615 214.492 433.407C213.022 432.218 211.498 431.124 211.106 430.976C209.741 430.462 197.925 418.304 194.948 414.352C185.832 402.25 177.869 379.085 179.873 370.501C180.158 369.279 180.081 366.488 179.702 364.298C178.696 358.485 179.838 339.841 181.608 333.2C184.168 323.59 186.219 317.237 186.973 316.585C187.367 316.243 190.149 311.506 193.155 306.056C196.161 300.606 199.846 295.018 201.343 293.636C204.754 290.49 204.785 290.453 210.348 282.7C212.883 279.168 215.53 276.085 216.232 275.847C216.933 275.609 217.622 274.915 217.762 274.305C217.903 273.695 218.973 272.872 220.141 272.476C221.309 272.079 222.546 271.018 222.891 270.116C223.235 269.214 224.957 267.69 226.718 266.729C229.762 265.065 236.252 260.498 239.672 257.611ZM311.587 247.094C312.814 244.776 313.65 242.385 313.445 241.78C312.972 240.386 305.677 243.84 305.686 245.453C305.69 246.061 305.309 247.336 304.842 248.286C302.907 252.214 304.54 261.619 307.159 261.634C309.127 261.645 311.906 258.639 311.864 256.544C311.844 255.512 311.271 253.91 310.591 252.986C309.665 251.727 309.914 250.253 311.587 247.094ZM325.357 265.889C323.386 266.17 321.386 266.079 320.913 265.688C320.412 265.274 316.794 266.25 312.268 268.018C304.79 270.943 303.091 272.135 296.901 278.807C295.668 280.138 293.123 282.797 291.247 284.717C289.371 286.638 287.438 289.415 286.952 290.89C285.595 295.003 287.44 305.058 290.331 309.306C291.637 311.224 293.197 313.866 293.797 315.176C294.398 316.486 295.511 317.949 296.271 318.427C297.03 318.906 298.046 319.972 298.526 320.797C299.006 321.621 302.29 324.043 305.822 326.176C311.417 329.557 312.918 329.99 317.48 329.546C320.358 329.266 323.042 329.308 323.443 329.639C324.48 330.496 333.978 327.123 334.284 325.789C334.425 325.179 336.204 324.115 338.239 323.424C340.274 322.734 343.206 320.958 344.754 319.477C349.06 315.36 353.208 305.465 354.195 296.955C354.973 290.25 354.797 288.614 352.741 283.432C350.836 278.63 349.586 276.898 346 274.09C337.812 267.681 331.207 265.057 325.357 265.889ZM305.836 280.268C306.548 279.491 308.37 277.772 309.887 276.447C314.111 272.756 314.892 272.329 318.073 271.98C322.702 271.471 327.743 272.552 332.769 275.131C337.003 277.303 338.598 278.62 344.367 284.706C345.55 285.954 346.925 289.074 347.841 292.589C349.269 298.068 349.197 298.669 346.611 302.888C345.1 305.353 344.106 308.082 344.402 308.954C344.998 310.712 340.808 313.74 331.69 318.14C323.227 322.225 318.768 323.132 315.144 321.509C313.383 320.719 311.629 320.18 311.246 320.31C310.863 320.44 310.357 319.978 310.121 319.283C309.886 318.588 308.894 317.713 307.918 317.339C306.942 316.964 304.65 315.04 302.826 313.061C300.063 310.066 299.14 308.142 297.303 301.56C295.375 294.648 295.298 293.356 296.685 291.262C297.557 289.944 299.146 287.43 300.217 285.676C301.288 283.922 302.699 282.306 303.353 282.084C304.007 281.862 305.124 281.045 305.836 280.268ZM125.81 347.097C127.335 346.256 131.244 343.929 134.497 341.926C140.812 338.035 167.878 327.57 171.585 327.587L173.715 327.595L172.871 331.972C172.406 334.379 171.916 337.468 171.783 338.837C171.609 340.603 171.018 341.302 169.739 341.249C158.952 340.793 140.712 349.711 142.379 354.625C142.844 355.997 145.237 358.428 148.012 360.346C148.83 360.912 150.188 362.47 151.028 363.809C151.868 365.147 154.013 367.224 155.794 368.424C157.575 369.623 159.18 371.038 159.359 371.566C159.539 372.096 160.384 372.556 161.238 372.591C162.092 372.624 162.98 373.21 163.212 373.892C163.443 374.573 165.376 376.117 167.507 377.324C170.403 378.962 171.449 380.14 171.646 381.984C171.79 383.341 172.586 387.327 173.414 390.843C174.242 394.359 174.766 397.287 174.58 397.35C172.626 398.013 150.508 383.524 144.383 377.568C140.118 373.421 127.101 356.351 124.643 351.68C123.12 348.787 123.181 348.545 125.81 347.097ZM461.895 232.82L463.438 230.548C465.481 227.54 476.025 223.813 478.383 225.264C479.267 225.808 480.331 226.137 480.746 225.996C482.847 225.284 487.99 228.849 489.629 232.157C490.603 234.12 491.83 235.826 492.357 235.947C492.885 236.069 494.007 238.208 494.853 240.701C496.012 244.117 496.052 245.346 495.016 245.698C494.261 245.954 493.501 245.746 493.327 245.234C492.901 243.978 485.511 240.809 484.065 241.262C483.43 241.461 482.697 240.991 482.435 240.219C482.173 239.446 481.145 238.786 480.15 238.751C479.155 238.715 477.733 238.407 476.99 238.065C473.548 236.483 469.35 234.975 468.854 235.143C468.553 235.246 466.864 234.764 465.1 234.074L461.895 232.82ZM334.78 287.22C334.002 284.22 333.127 283.05 330.664 281.713C326.478 279.443 322.351 280.769 321.976 284.506C321.599 288.268 322.042 289.137 325.457 291.323C327.775 292.808 329.276 292.991 332.109 292.134C335.746 291.035 335.762 291.005 334.78 287.22ZM257.894 318.979C265.398 316.434 266.447 311.866 259.542 311.801C255.673 311.766 245.616 315.378 243.456 317.578C242.711 318.337 240.443 320.492 238.417 322.368C235.733 324.852 234.675 326.703 234.517 329.192C234.126 335.356 238.741 336.828 241.836 331.527C244.763 326.516 251.734 321.069 257.894 318.979ZM151.055 354.512C149.947 352.919 150.196 352.481 153.081 350.953C154.89 349.995 157.178 348.743 158.164 348.17C159.149 347.596 160.209 347.252 160.517 347.404C160.825 347.557 163.207 347.042 165.81 346.26C168.094 345.575 169.336 345.102 169.954 345.529C170.76 346.088 170.504 348.181 170.116 353.343C169.749 358.227 169.882 367.466 170.338 368.81C171.093 371.036 169.366 370.52 166.035 367.525C164.218 365.892 162.445 364.653 162.096 364.771C161.746 364.89 160.462 363.83 159.244 362.415C158.025 361.002 155.968 359.053 154.674 358.086C153.379 357.119 151.75 355.511 151.055 354.512ZM315.916 308.909C319.729 306.272 319 302.442 314.284 300.33C306.81 296.983 304.266 304.618 311.224 309.511C312.829 310.639 313.548 310.547 315.916 308.909ZM418.142 314.654C415.681 314.563 415.418 314.339 416.443 313.201C418.141 311.313 425.585 308.349 430.478 307.609C432.74 307.268 436.086 307.659 437.916 308.478C440.925 309.827 441.444 310.567 443.394 316.303C444.579 319.786 445.386 322.969 445.187 323.374C444.989 323.78 441.612 322.631 437.684 320.824C433.756 319.015 428.986 317.352 427.085 317.129C425.183 316.905 423.433 316.15 423.196 315.451C422.959 314.752 422.38 314.311 421.909 314.47C421.438 314.63 419.742 314.712 418.142 314.654ZM408.509 332.799C408.652 332.509 408.035 331.818 407.137 331.266C404.834 329.85 404.47 330.234 406.523 331.915C407.472 332.692 408.366 333.09 408.509 332.799ZM522.731 360.509C525.276 358.077 529.574 354.492 532.283 352.544C534.992 350.595 537.62 348.859 538.123 348.685C539.167 348.327 546.418 349.823 547.457 350.611C547.835 350.899 549.13 351.11 550.333 351.081C551.537 351.051 553.997 352.005 555.8 353.199C557.603 354.393 561.659 356.745 564.812 358.425C567.966 360.105 570.736 362.04 570.969 362.727C571.202 363.413 571.703 363.873 572.082 363.749C572.46 363.624 574.094 364.565 575.711 365.841C577.328 367.117 580.559 369.657 582.89 371.486L587.129 374.813L584.24 382.158C582.651 386.199 580.806 390.112 580.138 390.852C579.471 391.594 579.156 392.904 579.439 393.765C579.72 394.625 579.258 396.648 578.411 398.26C577.563 399.872 577.067 401.773 577.308 402.483C577.796 403.923 577.205 407.719 576.102 410.218C575.705 411.118 576 413.682 576.758 415.915C577.516 418.149 577.724 420.116 577.22 420.287C576.716 420.458 576.559 421.349 576.87 422.267C577.396 423.816 574.997 429.222 573.569 429.706C572.925 429.925 567.447 436.921 566.946 438.166C566.793 438.544 565.645 439.901 564.395 441.181C561.845 443.79 552.057 454.201 544.133 462.731C536.491 470.957 531.797 475.578 530.703 475.949C530.174 476.128 528.156 477.963 526.218 480.027C524.28 482.09 522.204 483.945 521.604 484.148C521.005 484.351 520.532 485.372 520.553 486.416C520.587 488.106 509.168 500.638 506.89 501.411C506.418 501.571 505.729 502.495 505.359 503.464C504.988 504.434 503.894 505.495 502.927 505.823C500.656 506.593 492.91 514.955 486.841 523.186C482.921 528.502 476.998 539.781 468.615 557.892C467.987 559.25 467.642 560.862 467.85 561.475C468.058 562.087 467.713 562.764 467.084 562.978C465.816 563.408 458.9 583.255 459.451 584.879C459.641 585.441 459.461 586.015 459.05 586.154C458.639 586.294 457.929 588.261 457.473 590.524C455.767 598.977 454.422 600.919 450.65 600.372C449.625 600.223 447.608 600.016 446.168 599.912C442.398 599.64 430.355 598.164 425.924 597.432C423.842 597.088 419.299 595.659 415.828 594.257C412.358 592.855 409.239 591.788 408.896 591.886C408.554 591.982 407.006 591.574 405.458 590.977L402.643 589.891L403.075 585.457C404.205 573.882 406.919 558.114 408.524 553.794C410.291 549.041 411.28 545.056 412.641 537.218C413.03 534.978 413.752 533.007 414.245 532.839C414.738 532.672 414.943 531.948 414.7 531.23C414.456 530.512 414.871 528.348 415.622 526.423C416.373 524.497 416.904 522.677 416.802 522.377C416.613 521.82 417.321 519.734 419.993 512.968C420.824 510.865 421.411 508.868 421.297 508.533C421.183 508.197 421.818 506.575 422.708 504.929C423.598 503.282 424.221 501.353 424.09 500.642C423.959 499.932 425.182 496.531 426.807 493.086C428.432 489.642 430.557 485.105 431.529 483.005C435.211 475.051 442.734 461.116 443.844 460.193C445.583 458.745 454.073 446.988 454.854 444.945C455.229 443.963 456.054 442.984 456.686 442.769C457.318 442.555 458.166 441.515 458.57 440.457C458.974 439.4 460.422 437.07 461.788 435.279C463.155 433.487 465.242 430.656 466.428 428.987C467.613 427.317 470.816 423.025 473.546 419.449C476.276 415.873 479.568 410.947 480.862 408.502C484.118 402.354 490.223 394.399 496.853 387.669C499.928 384.546 502.55 381.572 502.676 381.06C502.803 380.548 504.115 378.997 505.592 377.612C507.068 376.228 509.239 373.869 510.415 372.368C511.591 370.869 513.087 369.184 513.74 368.624C514.392 368.064 515.641 367.004 516.515 366.268C517.389 365.532 520.186 362.941 522.731 360.509ZM589.798 388.126C589.579 387.481 589.901 386.062 590.515 384.971C591.128 383.88 591.811 382.169 592.033 381.169C592.36 379.699 593.773 380.71 599.402 386.438C607.116 394.287 610.93 398.822 610.521 399.654C610.372 399.955 610.972 400.645 611.853 401.187C612.734 401.73 613.845 403.005 614.321 404.023C617.984 411.853 622.866 420.26 624.101 420.868C624.919 421.27 626.348 421.418 627.277 421.197C628.204 420.976 631.482 421.974 634.56 423.415C637.638 424.856 641.848 426.767 643.914 427.66C645.981 428.553 647.835 429.765 648.034 430.353C648.234 430.941 647.296 433.866 645.951 436.853C644.606 439.84 643.249 443.63 642.936 445.275C642.623 446.92 641.001 451.152 639.331 454.679C637.662 458.205 636.108 462.305 635.878 463.79C635.647 465.274 634.884 467.285 634.18 468.259C633.476 469.232 633.054 470.525 633.242 471.133C633.43 471.74 632.951 473.763 632.176 475.628C631.087 478.249 630.212 479.065 628.32 479.218C625.864 479.417 624.342 477.929 626.316 477.259C627.683 476.796 633.318 464.849 633.796 461.402C633.998 459.942 634.434 457.851 634.765 456.756C635.241 455.181 635.006 454.471 633.633 453.347C632.678 452.566 631.925 451.256 631.956 450.436C631.988 449.617 631.503 448.827 630.879 448.683C630.254 448.539 629.744 447.86 629.746 447.175C629.746 446.489 628.327 444.736 626.592 443.28C624.857 441.822 621.302 438.796 618.692 436.554C616.081 434.312 612.379 431.864 610.464 431.115C608.549 430.366 606.833 429.313 606.651 428.776C606.469 428.239 605.973 427.917 605.548 428.061C605.123 428.206 602.954 427.571 600.729 426.651C595.905 424.657 588.472 422.606 587.395 422.971C586.973 423.114 586.08 422.267 585.411 421.087C584.742 419.908 584.5 418.84 584.87 418.714C585.241 418.588 585.372 417.167 585.162 415.554C584.951 413.941 585.026 410.608 585.329 408.146C585.632 405.686 585.697 403.131 585.473 402.47C585.249 401.81 585.966 399.181 587.066 396.63C588.166 394.078 588.908 391.524 588.715 390.954C588.522 390.385 588.776 389.779 589.279 389.608C589.783 389.437 590.016 388.77 589.798 388.126ZM574.809 436.842L577.063 433.321C582.114 425.434 590.496 426.932 608.717 438.978C611.878 441.068 614.655 443.338 614.887 444.022C615.119 444.706 616.005 445.294 616.855 445.328C617.707 445.362 618.3 445.836 618.174 446.381C618.05 446.925 618.9 448.071 620.066 448.928C621.231 449.783 622.542 451.538 622.979 452.826C623.416 454.115 624.658 455.818 625.738 456.612C627.559 457.948 627.5 458.471 624.921 463.801C623.393 466.962 621.472 469.64 620.656 469.752C619.839 469.865 618.435 468.696 617.536 467.156C616.636 465.616 613.173 462.576 609.841 460.4C606.508 458.224 603.662 456.1 603.514 455.681C603.367 455.262 600.289 452.962 596.676 450.572C593.061 448.181 589.989 445.887 589.849 445.474C589.709 445.061 588.976 444.932 588.22 445.188C587.465 445.444 586.644 445.055 586.396 444.324C586.147 443.593 585.306 442.843 584.526 442.658C583.746 442.472 581.24 441.088 578.958 439.581L574.809 436.842ZM565.694 447.717C566.491 447.446 567.912 446.044 568.85 444.601C569.789 443.158 571.044 441.812 571.64 441.609C573.313 441.042 589.28 452.395 593.901 457.436C594.83 458.45 597.594 460.47 600.045 461.928C602.494 463.384 604.673 465.089 604.886 465.716C605.098 466.344 606.719 467.734 608.487 468.805C610.254 469.876 611.855 471.209 612.044 471.766C612.233 472.324 612.992 472.576 613.73 472.326C614.467 472.075 615.737 472.495 616.551 473.257C618.263 474.862 617.552 477.165 615.085 478.001C614.233 478.291 613.512 479.111 613.484 479.823C613.456 480.536 609.464 485.167 604.612 490.115C599.76 495.063 595.914 499.475 596.064 499.918C596.214 500.361 595.885 500.877 595.331 501.065C594.348 501.398 592.666 502.866 584.773 510.283C579.38 515.35 576.137 518.234 570.909 522.612C568.429 524.69 565.953 527.423 565.408 528.686C564.862 529.948 563.853 531.172 563.165 531.406C562.476 531.639 560.4 534.841 558.552 538.519C555.47 544.652 552.468 549.102 544.416 559.477C542.798 561.562 540.996 563.439 540.412 563.647C539.828 563.857 539.317 564.383 539.277 564.819C539.051 567.307 514.379 585.869 509.517 587.21C508.617 587.459 505.008 589.225 501.497 591.136C493.226 595.639 472.145 601.83 468.609 600.796C467.284 600.408 464.555 600.649 462.545 601.331L458.892 602.57L460.907 599.074C462.016 597.15 464.433 591.154 466.278 585.748C472.382 567.862 474.084 563.538 479.363 552.516C482.24 546.509 484.461 541.203 484.298 540.723C484.136 540.245 484.621 539.643 485.377 539.387C486.132 539.131 486.641 538.598 486.508 538.205C486.2 537.298 495.833 522.76 497.78 521.192C498.578 520.549 500.937 517.912 503.021 515.332C505.107 512.752 507.11 510.53 507.473 510.394C507.838 510.258 508.893 508.99 509.817 507.576C510.742 506.162 512.216 504.752 513.094 504.442C513.972 504.132 514.563 503.506 514.409 503.051C514.255 502.596 515.105 501.375 516.298 500.339C517.49 499.303 520.645 496.117 523.308 493.259C525.97 490.402 528.686 487.881 529.342 487.659C529.999 487.436 531.818 485.668 533.385 483.731C534.952 481.793 537.067 479.926 538.084 479.58C539.102 479.235 539.832 478.643 539.706 478.263C539.58 477.883 541.961 475.121 544.996 472.122C548.031 469.124 552.127 464.614 554.1 462.1C556.071 459.585 558.531 456.975 559.566 456.299C560.602 455.624 561.323 454.703 561.17 454.254C561.018 453.804 561.412 453.26 562.046 453.045C562.68 452.83 563.434 451.653 563.721 450.431C564.008 449.209 564.896 447.988 565.694 447.717ZM652.119 440.049C652.971 437.133 653.665 433.941 653.662 432.959C653.659 431.976 653.928 431.115 654.26 431.045C655.756 430.734 664.336 433.257 664.615 434.089C664.785 434.6 664.289 439.17 663.512 444.243C662.114 453.38 659.522 459.532 653.985 466.85C652.555 468.742 651.476 470.568 651.587 470.908C651.698 471.248 650.509 472.493 648.944 473.674C647.378 474.854 646.297 476.407 646.541 477.125C646.858 478.06 645.814 478.826 642.862 479.827C640.595 480.596 638.601 480.813 638.429 480.308C638.258 479.804 638.696 479.195 639.401 478.956C640.566 478.561 642.64 471.648 642.085 470.011C641.958 469.637 643.401 465.856 645.291 461.61C647.182 457.364 649.144 451.969 649.649 449.621C650.155 447.274 651.266 442.966 652.119 440.049Z" fill="black"/>
<path d="M196.5 589.5C196.5 589.5 217.982 586.592 249 589.5C297 594 286 607.5 342.5 589.5M303 663C305.5 658.167 315.9 647.3 337.5 642.5C364.5 636.5 391.5 638.5 402.5 630.5M418 674C422.333 665 440.3 643.7 477.5 630.5C524 614 542.5 601.5 546 595.5" stroke="white" stroke-width="3"/>
<path d="M296.117 165C294.668 165 293.268 164.793 291.917 164.38C290.6 163.967 289.414 163.512 288.36 163.017C287.306 162.521 286.482 162.066 285.889 161.653C285.296 161.24 285 161.033 285 161.033C285 161.033 285.082 160.744 285.247 160.165C285.412 159.587 285.593 158.926 285.791 158.182C286.021 157.438 286.219 156.777 286.383 156.198C286.581 155.62 286.68 155.331 286.68 155.331C286.68 155.331 286.976 155.496 287.569 155.826C288.162 156.157 288.953 156.55 289.941 157.004C290.962 157.417 292.099 157.789 293.35 158.12C294.602 158.409 295.854 158.554 297.106 158.554C297.83 158.554 298.407 158.471 298.835 158.306C299.296 158.14 299.626 157.975 299.823 157.81C300.317 157.397 300.713 156.777 301.009 155.95C301.306 155.083 301.454 153.946 301.454 152.541C301.454 151.219 301.157 150.124 300.564 149.256C300.004 148.347 299.247 147.562 298.291 146.901C297.336 146.24 296.299 145.599 295.179 144.979C293.993 144.277 292.84 143.595 291.72 142.934C290.6 142.231 289.595 141.426 288.706 140.517C287.849 139.566 287.174 138.388 286.68 136.983C286.186 135.579 285.939 133.843 285.939 131.777C285.939 129.587 286.351 127.603 287.174 125.826C287.998 124.05 289.233 122.645 290.88 121.612C292.527 120.537 294.569 120 297.007 120C298.522 120 299.971 120.145 301.355 120.434C302.738 120.682 303.875 120.95 304.764 121.24C305.654 121.529 306.098 121.674 306.098 121.674L305.16 127.624C305.16 127.624 304.682 127.521 303.727 127.314C302.804 127.107 301.635 126.901 300.218 126.694C298.835 126.446 297.468 126.322 296.117 126.322C295.36 126.322 294.767 126.384 294.339 126.508C293.943 126.632 293.581 126.818 293.252 127.066C292.889 127.355 292.56 127.851 292.263 128.554C291.967 129.215 291.819 130.186 291.819 131.467C291.819 132.789 292.115 133.884 292.708 134.752C293.301 135.62 294.075 136.364 295.03 136.983C296.019 137.603 297.073 138.202 298.193 138.781C299.214 139.36 300.268 139.979 301.355 140.64C302.442 141.302 303.43 142.107 304.32 143.058C305.242 144.008 305.983 145.207 306.543 146.653C307.103 148.099 307.383 149.876 307.383 151.983C307.383 154.587 306.905 156.86 305.95 158.802C305.028 160.744 303.71 162.273 301.997 163.388C300.317 164.463 298.357 165 296.117 165Z" fill="white"/>
<path d="M326.608 165C324.039 165 321.848 164.421 320.036 163.264C318.258 162.107 316.891 160.103 315.935 157.252C315.013 154.36 314.552 150.351 314.552 145.227V120.806H320.333V143.492C320.333 146.839 320.415 149.525 320.58 151.55C320.778 153.533 321.107 155.041 321.568 156.074C322.029 157.066 322.672 157.727 323.495 158.058C324.319 158.388 325.356 158.554 326.608 158.554C327.893 158.512 328.947 158.326 329.77 157.996C330.627 157.665 331.269 157.004 331.697 156.012C332.158 155.021 332.488 153.533 332.685 151.55C332.883 149.566 332.982 146.88 332.982 143.492V120.806H338.714V144.669C338.714 150 338.236 154.132 337.281 157.066C336.358 160 334.991 162.066 333.18 163.264C331.401 164.421 329.21 165 326.608 165Z" fill="white"/>
<path d="M348.087 164.132L348.285 143.988L348.087 120.868C348.087 120.868 348.466 120.826 349.224 120.744C349.981 120.661 350.97 120.558 352.188 120.434C353.44 120.31 354.774 120.207 356.191 120.124C357.64 120.041 359.04 120 360.391 120C363.619 120 366.122 121.24 367.901 123.719C369.68 126.198 370.569 129.917 370.569 134.876C370.569 137.975 370.24 140.537 369.581 142.562C368.955 144.545 368.099 146.116 367.012 147.273C365.957 148.388 364.772 149.194 363.454 149.69C362.136 150.145 360.769 150.372 359.353 150.372C358.2 150.372 357.08 150.331 355.993 150.248C354.906 150.165 354.198 150.103 353.868 150.062V164.132H348.087ZM359.6 144.421C361.445 144.421 362.663 144.07 363.256 143.368C363.718 142.789 364.047 141.756 364.245 140.269C364.442 138.781 364.541 136.798 364.541 134.318C364.541 132.293 364.459 130.764 364.294 129.731C364.129 128.698 363.932 127.975 363.701 127.562C363.503 127.107 363.306 126.777 363.108 126.57C362.845 126.322 362.367 126.116 361.675 125.95C361.016 125.744 360.209 125.64 359.254 125.64C358.2 125.64 357.179 125.702 356.191 125.826C355.235 125.95 354.461 126.074 353.868 126.198V143.802C354.132 143.884 354.807 144.008 355.894 144.174C357.014 144.339 358.249 144.421 359.6 144.421Z" fill="white"/>
<path d="M377.666 164.132V120.806H396.343V127.066L383.447 126.942L383.2 139.091H395.108V145.165H383.2L383.447 157.996L396.343 157.872V164.132H377.666Z" fill="white"/>
<path d="M403.916 164.132L404.163 143.802L403.965 120.868C404.261 120.826 404.854 120.764 405.744 120.682C406.633 120.599 407.654 120.517 408.807 120.434C409.993 120.31 411.212 120.207 412.464 120.124C413.715 120.041 414.852 120 415.873 120C418.31 120 420.419 120.455 422.197 121.364C423.976 122.273 425.343 123.76 426.299 125.826C427.287 127.851 427.781 130.537 427.781 133.884C427.781 137.438 427.171 140.269 425.953 142.376C424.734 144.483 422.955 145.95 420.616 146.777V147.087L428.275 164.132H421.753L415.181 147.769L409.746 147.521V164.132H403.916ZM416.219 141.88C418.459 141.88 419.941 141.24 420.666 139.959C421.39 138.678 421.753 136.653 421.753 133.884C421.753 131.57 421.605 129.855 421.308 128.74C421.012 127.624 420.616 126.88 420.122 126.508C419.43 125.971 418.162 125.702 416.318 125.702C414.967 125.702 413.715 125.764 412.562 125.888C411.442 126.012 410.504 126.136 409.746 126.26L409.697 141.322C410.751 141.488 411.838 141.632 412.958 141.756C414.111 141.839 415.198 141.88 416.219 141.88Z" fill="white"/>
<path d="M448.839 164.132L449.036 143.988L448.839 120.868C448.839 120.868 449.217 120.826 449.975 120.744C450.733 120.661 451.721 120.558 452.94 120.434C454.191 120.31 455.526 120.207 456.942 120.124C458.391 120.041 459.791 120 461.142 120C464.37 120 466.874 121.24 468.652 123.719C470.431 126.198 471.32 129.917 471.32 134.876C471.32 137.975 470.991 140.537 470.332 142.562C469.706 144.545 468.85 146.116 467.763 147.273C466.709 148.388 465.523 149.194 464.205 149.69C462.888 150.145 461.521 150.372 460.104 150.372C458.951 150.372 457.831 150.331 456.744 150.248C455.657 150.165 454.949 150.103 454.62 150.062V164.132H448.839ZM460.351 144.421C462.196 144.421 463.415 144.07 464.008 143.368C464.469 142.789 464.798 141.756 464.996 140.269C465.194 138.781 465.292 136.798 465.292 134.318C465.292 132.293 465.21 130.764 465.045 129.731C464.881 128.698 464.683 127.975 464.452 127.562C464.255 127.107 464.057 126.777 463.859 126.57C463.596 126.322 463.118 126.116 462.427 125.95C461.768 125.744 460.961 125.64 460.005 125.64C458.951 125.64 457.93 125.702 456.942 125.826C455.987 125.95 455.213 126.074 454.62 126.198V143.802C454.883 143.884 455.558 144.008 456.646 144.174C457.765 144.339 459.001 144.421 460.351 144.421Z" fill="white"/>
<path d="M478.417 164.194L478.615 144.236L478.417 120.806H484.248L484.05 140.021L484.248 164.132L478.417 164.194Z" fill="white"/>
<path d="M505.673 164.938C503.829 164.938 502.083 164.628 500.436 164.008C498.789 163.388 497.323 162.293 496.038 160.723C494.786 159.112 493.798 156.818 493.073 153.843C492.349 150.868 491.986 147.025 491.986 142.314C491.986 137.686 492.332 133.926 493.024 131.033C493.716 128.099 494.688 125.847 495.939 124.277C497.224 122.665 498.756 121.55 500.534 120.93C502.313 120.31 504.273 120 506.414 120C507.501 120 508.638 120.083 509.824 120.248C511.042 120.372 512.179 120.537 513.233 120.744C514.32 120.95 515.193 121.136 515.852 121.302L515.209 127.314C514.254 127.19 512.986 127.025 511.405 126.818C509.824 126.57 508.061 126.446 506.118 126.446C503.054 126.446 501.127 126.942 500.337 127.934C499.777 128.636 499.25 130.103 498.756 132.335C498.295 134.566 498.064 137.893 498.064 142.314C498.064 145.661 498.196 148.347 498.459 150.372C498.756 152.355 499.085 153.864 499.447 154.897C499.843 155.888 500.172 156.57 500.436 156.942C500.798 157.397 501.391 157.81 502.214 158.182C503.071 158.512 504.323 158.678 505.97 158.678C507.814 158.678 509.297 158.45 510.417 157.996V146.405L505.278 146.033V140.764H516V162.335C516 162.335 515.539 162.562 514.617 163.017C513.727 163.43 512.508 163.843 510.96 164.256C509.412 164.711 507.65 164.938 505.673 164.938Z" fill="white"/>
<path d="M285 185.748L285.212 179.833L285.085 173.252C285.508 173.228 286.257 173.198 287.33 173.162C288.404 173.126 289.59 173.096 290.889 173.072C292.189 173.036 293.375 173.018 294.449 173.018C296.369 173.018 298.036 173.144 299.448 173.396C300.861 173.647 301.948 174.061 302.711 174.636C303.473 175.2 303.855 175.955 303.855 176.902C303.855 177.945 303.318 178.772 302.245 179.383C301.171 179.994 299.618 180.402 297.584 180.606V180.66L304.236 185.748H300.041L294.11 180.786L288.601 180.696V185.748H285ZM294.872 179.527C296.962 179.527 298.347 179.317 299.024 178.898C299.731 178.466 300.084 177.795 300.084 176.884C300.084 176.141 299.928 175.577 299.618 175.194C299.335 174.798 298.94 174.54 298.431 174.42C298.121 174.337 297.64 174.277 296.991 174.241C296.369 174.193 295.691 174.169 294.957 174.169C293.799 174.169 292.612 174.193 291.398 174.241C290.212 174.289 289.294 174.331 288.644 174.367L288.559 179.347C289.548 179.395 290.593 179.437 291.694 179.473C292.824 179.509 293.884 179.527 294.872 179.527Z" fill="white"/>
<path d="M311.895 185.748V173.252H326.343V174.582L315.454 174.528L315.242 178.754H325.326V180.03H315.242L315.454 184.454L326.343 184.418V185.748H311.895Z" fill="white"/>
<path d="M339.634 186C338.475 186 337.36 185.94 336.286 185.82C335.213 185.712 334.253 185.58 333.405 185.425C332.586 185.269 331.936 185.137 331.456 185.029C330.976 184.909 330.736 184.849 330.736 184.849C330.736 184.849 330.792 184.789 330.905 184.669C331.047 184.538 331.202 184.394 331.371 184.238C331.541 184.07 331.682 183.926 331.795 183.806C331.936 183.686 332.007 183.627 332.007 183.627C332.007 183.627 332.233 183.68 332.685 183.788C333.165 183.884 333.801 183.998 334.592 184.13C335.382 184.25 336.286 184.364 337.303 184.472C338.32 184.568 339.379 184.615 340.481 184.615C341.187 184.615 341.738 184.592 342.133 184.544C342.557 184.484 342.854 184.43 343.023 184.382C343.588 184.214 344.026 183.986 344.337 183.698C344.647 183.399 344.803 183.015 344.803 182.548C344.803 182.092 344.577 181.715 344.125 181.415C343.673 181.115 343.066 180.864 342.303 180.66C341.568 180.456 340.763 180.276 339.888 180.12C338.758 179.917 337.699 179.713 336.71 179.509C335.721 179.305 334.846 179.071 334.083 178.808C333.32 178.544 332.727 178.214 332.304 177.819C331.88 177.411 331.668 176.908 331.668 176.308C331.668 175.685 331.993 175.128 332.643 174.636C333.292 174.133 334.267 173.737 335.566 173.45C336.865 173.15 338.475 173 340.396 173C341.639 173 342.783 173.036 343.828 173.108C344.873 173.168 345.707 173.234 346.328 173.306C346.978 173.366 347.303 173.396 347.303 173.396L346.709 174.69C346.709 174.69 346.356 174.666 345.65 174.618C344.972 174.558 344.097 174.504 343.023 174.456C341.95 174.396 340.82 174.367 339.634 174.367C338.927 174.367 338.362 174.385 337.939 174.42C337.543 174.456 337.19 174.516 336.88 174.6C336.512 174.684 336.159 174.858 335.82 175.122C335.51 175.373 335.354 175.721 335.354 176.165C335.354 176.656 335.651 177.058 336.244 177.369C336.837 177.681 337.614 177.939 338.574 178.142C339.535 178.334 340.552 178.526 341.625 178.718C342.755 178.91 343.842 179.143 344.887 179.419C345.933 179.683 346.794 180.042 347.472 180.498C348.15 180.953 348.489 181.571 348.489 182.35C348.489 183.081 348.108 183.722 347.345 184.274C346.611 184.813 345.58 185.239 344.252 185.55C342.924 185.85 341.385 186 339.634 186Z" fill="white"/>
<path d="M359.113 185.748L359.198 174.528L350.935 174.582V173.252H370.849V174.582L362.587 174.528L362.672 185.748H359.113Z" fill="white"/>
<path d="M369.641 185.748L377.649 173.252H382.648L390.656 185.748H387.013L385.021 182.44H375.276L373.285 185.748H369.641ZM376.039 181.109H384.259L380.318 174.582H379.979L376.039 181.109Z" fill="white"/>
<path d="M404.844 186C402.811 186 401.073 185.838 399.633 185.515C398.221 185.179 397.147 184.598 396.413 183.77C395.678 182.943 395.311 181.793 395.311 180.318V173.252H398.87V179.833C398.87 180.911 398.955 181.769 399.124 182.404C399.294 183.039 399.591 183.519 400.014 183.842C400.438 184.166 401.031 184.382 401.794 184.49C402.585 184.586 403.602 184.633 404.844 184.633C406.087 184.633 407.104 184.58 407.895 184.472C408.686 184.364 409.293 184.154 409.717 183.842C410.141 183.519 410.437 183.039 410.607 182.404C410.776 181.757 410.861 180.899 410.861 179.833V173.252H414.42V180.156C414.42 181.691 414.039 182.883 413.276 183.734C412.542 184.574 411.468 185.161 410.056 185.497C408.644 185.832 406.906 186 404.844 186Z" fill="white"/>
<path d="M423.323 185.748L423.535 179.833L423.408 173.252C423.832 173.228 424.58 173.198 425.654 173.162C426.727 173.126 427.913 173.096 429.213 173.072C430.512 173.036 431.699 173.018 432.772 173.018C434.693 173.018 436.359 173.144 437.772 173.396C439.184 173.647 440.271 174.061 441.034 174.636C441.797 175.2 442.178 175.955 442.178 176.902C442.178 177.945 441.641 178.772 440.568 179.383C439.495 179.994 437.941 180.402 435.907 180.606V180.66L442.559 185.748H438.365L432.433 180.786L426.925 180.696V185.748H423.323ZM433.196 179.527C435.286 179.527 436.67 179.317 437.348 178.898C438.054 178.466 438.407 177.795 438.407 176.884C438.407 176.141 438.252 175.577 437.941 175.194C437.659 174.798 437.263 174.54 436.755 174.42C436.444 174.337 435.964 174.277 435.314 174.241C434.693 174.193 434.015 174.169 433.28 174.169C432.122 174.169 430.936 174.193 429.721 174.241C428.535 174.289 427.617 174.331 426.967 174.367L426.882 179.347C427.871 179.395 428.916 179.437 430.018 179.473C431.148 179.509 432.207 179.527 433.196 179.527Z" fill="white"/>
<path d="M445.981 185.748L453.989 173.252H458.989L466.997 185.748H463.353L461.362 182.44H451.617L449.625 185.748H445.981ZM452.379 181.109H460.599L456.659 174.582H456.32L452.379 181.109Z" fill="white"/>
<path d="M471.652 185.748V173.252H476.44L488.43 183.932H488.557L488.007 173.252H491.566V185.748H486.778L474.787 175.068H474.66L475.211 185.748H471.652Z" fill="white"/>
<path d="M504.263 185.748L504.348 174.528L496.086 174.582V173.252H516V174.582L507.738 174.528L507.823 185.748H504.263Z" fill="white"/>
</svg>
